<?xml version="1.0" encoding="UTF-8"?>
<!DOCTYPE svg PUBLIC "-//W3C//DTD SVG 1.1//EN" "http://www.w3.org/Graphics/SVG/1.1/DTD/svg11.dtd">
<!-- Creator: CorelDRAW 2017 -->
<svg xmlns="http://www.w3.org/2000/svg" xml:space="preserve" width="800px" height="520px" version="1.1" shape-rendering="geometricPrecision" text-rendering="geometricPrecision" image-rendering="optimizeQuality" fill-rule="evenodd" clip-rule="evenodd"
viewBox="0 0 678.11 440.96"
 xmlns:xlink="http://www.w3.org/1999/xlink">
 <g id="Layer_x0020_1">
  <metadata id="CorelCorpID_0Corel-Layer"/>
  <polyline fill="none" stroke="black" stroke-width="1.05" stroke-miterlimit="22.9256" points="430.69,164.23 430.69,145.18 392.59,145.18 392.59,164.23 "/>
  <g>
   <path fill="black" fill-rule="nonzero" d="M183.75 161.62l0.29 0.01 0.28 0.02 0.28 0.03 0.27 0.05 0.27 0.06 0.27 0.07 0.25 0.09 0.26 0.1 0.25 0.11 0.24 0.12 0.23 0.13 0.23 0.15 0.22 0.15 0.21 0.16 0.2 0.18 0.2 0.18 0.18 0.19 0.18 0.21 0.17 0.21 0.16 0.21 0.14 0.23 0.14 0.23 0.12 0.24 0.12 0.25 0.1 0.25 0.09 0.26 0.08 0.26 0.06 0.27 0.05 0.27 0.04 0.28 0.02 0.28 0.01 0.29 0 0 0 0.29 -0.02 0.28 -0.04 0.28 -0.05 0.27 -0.06 0.27 -0.07 0.27 -0.09 0.26 -0.1 0.25 -0.11 0.25 -0.12 0.24 -0.13 0.23 -0.14 0.23 -0.16 0.22 -0.16 0.21 -0.18 0.21 -0.18 0.19 -0.19 0.19 -0.21 0.17 -0.21 0.17 -0.21 0.16 -0.23 0.14 -0.23 0.14 -0.24 0.12 -0.25 0.12 -0.25 0.1 -0.26 0.09 -0.26 0.08 -0.27 0.06 -0.27 0.05 -0.28 0.04 -0.28 0.02 -0.29 0.01 0 0 -0.28 0 -0.29 -0.02 -0.27 -0.04 -0.28 -0.05 -0.27 -0.06 -0.26 -0.07 -0.26 -0.09 -0.26 -0.09 -0.24 -0.11 -0.24 -0.13 -0.24 -0.13 -0.23 -0.14 -0.22 -0.16 -0.21 -0.16 -0.2 -0.18 -0.2 -0.18 -0.18 -0.19 -0.18 -0.2 -0.17 -0.21 -0.15 -0.22 -0.15 -0.23 -0.14 -0.23 -0.12 -0.24 -0.12 -0.24 -0.1 -0.26 -0.09 -0.25 -0.07 -0.27 -0.07 -0.27 -0.05 -0.27 -0.04 -0.28 -0.02 -0.28 -0.01 -0.29 0 0 0.01 -0.28 0.02 -0.29 0.03 -0.28 0.05 -0.27 0.06 -0.27 0.07 -0.26 0.09 -0.26 0.1 -0.26 0.11 -0.25 0.12 -0.24 0.13 -0.23 0.15 -0.23 0.15 -0.22 0.17 -0.21 0.17 -0.2 0.18 -0.2 0.2 -0.18 0.2 -0.18 0.21 -0.17 0.22 -0.15 0.22 -0.15 0.23 -0.14 0.24 -0.12 0.25 -0.12 0.25 -0.1 0.26 -0.09 0.26 -0.07 0.27 -0.07 0.28 -0.05 0.27 -0.04 0.28 -0.02 0.29 -0.01 0 0zm308.64 5l-308.59 1.97 -0.02 -2.79 308.59 -1.96 0.02 2.78zm-0.04 -6.96l0 0 0.28 0 0.29 0.02 0.27 0.04 0.28 0.04 0.27 0.06 0.26 0.08 0.26 0.08 0.25 0.1 0.25 0.11 0.24 0.12 0.24 0.14 0.22 0.14 0.22 0.15 0.22 0.17 0.2 0.17 0.19 0.19 0.19 0.19 0.18 0.2 0.16 0.21 0.16 0.22 0.15 0.22 0.13 0.24 0.13 0.24 0.11 0.24 0.11 0.25 0.08 0.26 0.08 0.27 0.07 0.27 0.05 0.27 0.03 0.28 0.03 0.28 0.01 0.29 0 0 -0.01 0.28 -0.02 0.28 -0.03 0.28 -0.05 0.28 -0.06 0.27 -0.07 0.26 -0.09 0.26 -0.1 0.26 -0.11 0.24 -0.12 0.24 -0.13 0.24 -0.15 0.23 -0.15 0.21 -0.17 0.22 -0.17 0.2 -0.19 0.2 -0.19 0.18 -0.2 0.18 -0.21 0.17 -0.22 0.15 -0.22 0.15 -0.24 0.13 -0.23 0.13 -0.25 0.11 -0.25 0.1 -0.26 0.09 -0.26 0.08 -0.27 0.07 -0.28 0.05 -0.27 0.03 -0.29 0.03 -0.28 0.01 0 0 -0.29 -0.01 -0.28 -0.02 -0.28 -0.03 -0.27 -0.05 -0.27 -0.06 -0.27 -0.07 -0.26 -0.09 -0.25 -0.1 -0.25 -0.11 -0.24 -0.12 -0.23 -0.13 -0.23 -0.15 -0.22 -0.15 -0.21 -0.17 -0.2 -0.17 -0.2 -0.18 -0.19 -0.2 -0.17 -0.2 -0.17 -0.21 -0.16 -0.22 -0.14 -0.22 -0.14 -0.23 -0.13 -0.24 -0.11 -0.25 -0.1 -0.25 -0.09 -0.26 -0.08 -0.26 -0.06 -0.27 -0.05 -0.28 -0.04 -0.27 -0.02 -0.29 -0.01 -0.28 0 0 0 -0.29 0.02 -0.28 0.04 -0.28 0.04 -0.28 0.07 -0.27 0.07 -0.26 0.09 -0.26 0.09 -0.25 0.11 -0.25 0.13 -0.24 0.13 -0.24 0.14 -0.22 0.16 -0.22 0.16 -0.21 0.18 -0.21 0.18 -0.19 0.19 -0.19 0.2 -0.18 0.21 -0.16 0.22 -0.16 0.23 -0.15 0.23 -0.13 0.24 -0.13 0.25 -0.11 0.25 -0.1 0.26 -0.09 0.26 -0.08 0.27 -0.06 0.27 -0.05 0.28 -0.04 0.28 -0.02 0.29 -0.01z"/>
  </g>
  <line fill="none" stroke="black" stroke-width="2.79" stroke-miterlimit="22.9256" stroke-dasharray="2.790000 8.360000" x1="0" y1="167.2" x2="678.11" y2= "165.23" />
  <g>
   <path fill="red" fill-rule="nonzero" d="M406.23 165.82l0 -0.28 0.02 -0.29 0.03 -0.28 0.05 -0.27 0.05 -0.27 0.08 -0.26 0.08 -0.27 0.1 -0.25 0.11 -0.25 0.12 -0.24 0.13 -0.23 0.14 -0.23 0.15 -0.22 0.17 -0.22 0.17 -0.2 0.18 -0.2 0.19 -0.19 0.2 -0.17 0.21 -0.17 0.22 -0.16 0.22 -0.15 0.24 -0.14 0.23 -0.12 0.25 -0.12 0.25 -0.1 0.26 -0.09 0.26 -0.08 0.27 -0.07 0.28 -0.05 0.27 -0.04 0.29 -0.02 0.28 -0.02 0 0 0.29 0.01 0.28 0.02 0.28 0.03 0.28 0.04 0.27 0.06 0.26 0.08 0.26 0.08 0.26 0.1 0.24 0.11 0.25 0.12 0.23 0.13 0.23 0.14 0.22 0.15 0.21 0.17 0.21 0.17 0.19 0.18 0.19 0.19 0.18 0.2 0.17 0.21 0.16 0.22 0.14 0.22 0.14 0.24 0.13 0.23 0.11 0.25 0.11 0.25 0.09 0.26 0.08 0.26 0.06 0.27 0.05 0.27 0.04 0.28 0.03 0.28 0.01 0.29 0 0 0 0.29 -0.02 0.28 -0.03 0.28 -0.05 0.27 -0.06 0.27 -0.07 0.27 -0.09 0.26 -0.09 0.25 -0.11 0.25 -0.12 0.24 -0.13 0.24 -0.15 0.22 -0.15 0.22 -0.16 0.22 -0.17 0.2 -0.19 0.2 -0.19 0.19 -0.2 0.17 -0.21 0.17 -0.21 0.16 -0.23 0.15 -0.23 0.14 -0.24 0.12 -0.24 0.12 -0.26 0.1 -0.25 0.09 -0.27 0.08 -0.27 0.07 -0.27 0.05 -0.28 0.04 -0.28 0.03 -0.29 0.01 0 0 -0.28 -0.01 -0.29 -0.01 -0.27 -0.04 -0.28 -0.04 -0.27 -0.06 -0.26 -0.07 -0.26 -0.09 -0.26 -0.1 -0.25 -0.1 -0.24 -0.12 -0.23 -0.14 -0.23 -0.14 -0.22 -0.15 -0.22 -0.17 -0.2 -0.17 -0.2 -0.18 -0.18 -0.19 -0.18 -0.2 -0.17 -0.21 -0.16 -0.22 -0.15 -0.22 -0.14 -0.23 -0.12 -0.24 -0.12 -0.25 -0.1 -0.25 -0.09 -0.26 -0.08 -0.26 -0.07 -0.27 -0.05 -0.27 -0.04 -0.28 -0.02 -0.28 -0.01 -0.29 0 0zm5 -154.39l1.97 154.3 -2.79 0.04 -1.97 -154.3 2.79 -0.04zm-6.97 0.09l0 0 0 -0.28 0.02 -0.28 0.03 -0.28 0.05 -0.28 0.06 -0.27 0.07 -0.26 0.09 -0.26 0.09 -0.26 0.11 -0.25 0.12 -0.24 0.13 -0.23 0.15 -0.23 0.15 -0.22 0.16 -0.21 0.17 -0.21 0.19 -0.2 0.19 -0.18 0.2 -0.18 0.21 -0.17 0.21 -0.16 0.23 -0.15 0.23 -0.13 0.24 -0.13 0.24 -0.12 0.26 -0.1 0.25 -0.09 0.27 -0.08 0.27 -0.07 0.27 -0.05 0.28 -0.04 0.28 -0.02 0.29 -0.01 0 0 0.28 0 0.29 0.02 0.27 0.03 0.28 0.05 0.27 0.05 0.27 0.08 0.26 0.08 0.25 0.1 0.25 0.11 0.24 0.12 0.24 0.13 0.22 0.14 0.22 0.16 0.22 0.16 0.2 0.17 0.2 0.18 0.19 0.2 0.17 0.2 0.17 0.2 0.16 0.22 0.15 0.23 0.14 0.23 0.12 0.24 0.12 0.24 0.1 0.25 0.09 0.26 0.08 0.26 0.07 0.27 0.05 0.28 0.04 0.27 0.02 0.29 0.01 0.28 0 0 0 0.29 -0.02 0.28 -0.03 0.28 -0.05 0.27 -0.05 0.27 -0.08 0.27 -0.08 0.26 -0.1 0.25 -0.11 0.25 -0.12 0.24 -0.13 0.24 -0.14 0.23 -0.15 0.22 -0.17 0.21 -0.17 0.2 -0.18 0.2 -0.19 0.19 -0.2 0.18 -0.21 0.17 -0.22 0.15 -0.22 0.15 -0.24 0.14 -0.23 0.13 -0.25 0.11 -0.25 0.1 -0.26 0.1 -0.26 0.08 -0.27 0.06 -0.27 0.05 -0.28 0.04 -0.29 0.03 -0.28 0.01 0 0 -0.29 0 -0.28 -0.02 -0.28 -0.03 -0.27 -0.05 -0.27 -0.06 -0.27 -0.07 -0.26 -0.09 -0.25 -0.09 -0.25 -0.11 -0.24 -0.12 -0.24 -0.13 -0.23 -0.15 -0.22 -0.15 -0.21 -0.16 -0.21 -0.18 -0.19 -0.18 -0.19 -0.19 -0.18 -0.2 -0.17 -0.21 -0.16 -0.22 -0.14 -0.22 -0.14 -0.23 -0.13 -0.24 -0.11 -0.25 -0.11 -0.25 -0.09 -0.26 -0.08 -0.26 -0.06 -0.27 -0.05 -0.27 -0.04 -0.28 -0.03 -0.28 -0.01 -0.29z"/>
  </g>
  <g>
   <path fill="black" fill-rule="nonzero" d="M183.75 383.76l0.29 0 0.28 0.02 0.28 0.03 0.27 0.05 0.27 0.06 0.27 0.08 0.25 0.08 0.26 0.1 0.25 0.11 0.24 0.12 0.23 0.14 0.23 0.14 0.22 0.15 0.21 0.17 0.2 0.17 0.2 0.19 0.18 0.19 0.18 0.2 0.17 0.21 0.16 0.22 0.14 0.22 0.14 0.23 0.12 0.24 0.12 0.25 0.1 0.25 0.09 0.26 0.08 0.26 0.06 0.27 0.05 0.28 0.04 0.28 0.02 0.28 0.01 0.28 0 0 0 0.29 -0.02 0.28 -0.04 0.28 -0.05 0.28 -0.06 0.27 -0.07 0.26 -0.09 0.26 -0.1 0.25 -0.11 0.25 -0.12 0.24 -0.13 0.24 -0.14 0.22 -0.16 0.22 -0.16 0.22 -0.18 0.2 -0.18 0.19 -0.19 0.19 -0.21 0.18 -0.21 0.16 -0.21 0.16 -0.23 0.15 -0.23 0.13 -0.24 0.13 -0.25 0.11 -0.25 0.1 -0.26 0.09 -0.26 0.08 -0.27 0.06 -0.27 0.05 -0.28 0.04 -0.28 0.03 -0.29 0 0 0 -0.28 0 -0.29 -0.02 -0.27 -0.03 -0.28 -0.05 -0.27 -0.06 -0.26 -0.08 -0.26 -0.08 -0.26 -0.1 -0.24 -0.11 -0.24 -0.12 -0.24 -0.14 -0.23 -0.14 -0.22 -0.15 -0.21 -0.17 -0.2 -0.17 -0.2 -0.19 -0.18 -0.19 -0.18 -0.2 -0.17 -0.21 -0.15 -0.22 -0.15 -0.22 -0.14 -0.23 -0.12 -0.24 -0.12 -0.25 -0.1 -0.25 -0.09 -0.26 -0.07 -0.26 -0.07 -0.27 -0.05 -0.28 -0.04 -0.28 -0.02 -0.28 -0.01 -0.28 0 0 0.01 -0.29 0.02 -0.28 0.03 -0.28 0.05 -0.28 0.06 -0.27 0.07 -0.26 0.09 -0.26 0.1 -0.25 0.11 -0.25 0.12 -0.24 0.13 -0.24 0.15 -0.22 0.15 -0.22 0.17 -0.22 0.17 -0.2 0.18 -0.19 0.2 -0.19 0.2 -0.18 0.21 -0.16 0.22 -0.16 0.22 -0.15 0.23 -0.13 0.24 -0.13 0.25 -0.11 0.25 -0.1 0.26 -0.09 0.26 -0.08 0.27 -0.06 0.28 -0.05 0.27 -0.04 0.28 -0.03 0.29 0 0 0zm308.64 5l-308.59 1.96 -0.02 -2.78 308.59 -1.97 0.02 2.79zm-0.04 -6.97l0 0 0.28 0.01 0.29 0.01 0.27 0.04 0.28 0.05 0.27 0.06 0.26 0.07 0.26 0.09 0.25 0.09 0.25 0.12 0.24 0.12 0.24 0.13 0.22 0.14 0.22 0.16 0.22 0.16 0.2 0.18 0.19 0.18 0.19 0.19 0.18 0.2 0.16 0.21 0.16 0.22 0.15 0.23 0.13 0.23 0.13 0.24 0.11 0.25 0.11 0.25 0.08 0.26 0.08 0.26 0.07 0.27 0.05 0.27 0.03 0.28 0.03 0.28 0.01 0.29 0 0 -0.01 0.29 -0.02 0.28 -0.03 0.28 -0.05 0.27 -0.06 0.27 -0.07 0.27 -0.09 0.26 -0.1 0.25 -0.11 0.25 -0.12 0.24 -0.13 0.23 -0.15 0.23 -0.15 0.22 -0.17 0.21 -0.17 0.2 -0.19 0.2 -0.19 0.18 -0.2 0.18 -0.21 0.17 -0.22 0.16 -0.22 0.14 -0.24 0.14 -0.23 0.12 -0.25 0.12 -0.25 0.1 -0.26 0.09 -0.26 0.07 -0.27 0.07 -0.28 0.05 -0.27 0.04 -0.29 0.02 -0.28 0.01 0 0 -0.29 -0.01 -0.28 -0.02 -0.28 -0.03 -0.27 -0.05 -0.27 -0.06 -0.27 -0.07 -0.26 -0.09 -0.25 -0.1 -0.25 -0.11 -0.24 -0.12 -0.23 -0.13 -0.23 -0.14 -0.22 -0.16 -0.21 -0.16 -0.2 -0.18 -0.2 -0.18 -0.19 -0.19 -0.17 -0.21 -0.17 -0.2 -0.16 -0.22 -0.14 -0.23 -0.14 -0.23 -0.13 -0.24 -0.11 -0.25 -0.1 -0.25 -0.09 -0.26 -0.08 -0.26 -0.06 -0.27 -0.05 -0.27 -0.04 -0.28 -0.02 -0.28 -0.01 -0.29 0 0 0 -0.29 0.02 -0.28 0.04 -0.28 0.04 -0.27 0.07 -0.27 0.07 -0.27 0.09 -0.26 0.09 -0.25 0.11 -0.25 0.13 -0.24 0.13 -0.23 0.14 -0.23 0.16 -0.22 0.16 -0.21 0.18 -0.2 0.18 -0.2 0.19 -0.19 0.2 -0.17 0.21 -0.17 0.22 -0.16 0.23 -0.14 0.23 -0.14 0.24 -0.12 0.25 -0.12 0.25 -0.1 0.26 -0.09 0.26 -0.08 0.27 -0.06 0.27 -0.05 0.28 -0.04 0.28 -0.02 0.29 -0.01z"/>
  </g>
  <line fill="none" stroke="black" stroke-width="2.79" stroke-miterlimit="22.9256" stroke-dasharray="2.790000 8.360000" x1="0" y1="389.33" x2="678.11" y2= "387.36" />
  <g>
   <path fill="black" fill-rule="nonzero" d="M590.67 390.68l0.01 -0.29 0.01 -0.28 0.04 -0.28 0.04 -0.27 0.06 -0.27 0.07 -0.27 0.09 -0.26 0.09 -0.25 0.11 -0.25 0.12 -0.24 0.13 -0.24 0.15 -0.22 0.15 -0.22 0.16 -0.22 0.18 -0.2 0.18 -0.2 0.19 -0.19 0.2 -0.17 0.21 -0.17 0.21 -0.16 0.23 -0.15 0.23 -0.14 0.24 -0.12 0.25 -0.12 0.25 -0.1 0.25 -0.09 0.27 -0.08 0.27 -0.07 0.27 -0.05 0.28 -0.04 0.28 -0.02 0.29 -0.02 0 0 0.28 0.01 0.29 0.02 0.27 0.03 0.28 0.04 0.27 0.06 0.26 0.08 0.26 0.08 0.26 0.1 0.25 0.11 0.24 0.12 0.23 0.13 0.23 0.14 0.22 0.15 0.22 0.17 0.2 0.17 0.2 0.18 0.18 0.19 0.18 0.2 0.17 0.21 0.16 0.22 0.15 0.22 0.13 0.24 0.13 0.23 0.12 0.25 0.1 0.25 0.09 0.26 0.08 0.26 0.06 0.27 0.06 0.27 0.04 0.28 0.02 0.28 0.01 0.29 0 0 0 0.28 -0.02 0.29 -0.03 0.27 -0.05 0.28 -0.06 0.27 -0.07 0.26 -0.08 0.26 -0.1 0.26 -0.11 0.25 -0.12 0.24 -0.13 0.23 -0.14 0.23 -0.16 0.22 -0.16 0.21 -0.17 0.21 -0.18 0.2 -0.2 0.18 -0.19 0.18 -0.21 0.17 -0.22 0.16 -0.22 0.15 -0.24 0.13 -0.24 0.13 -0.24 0.12 -0.25 0.1 -0.26 0.09 -0.26 0.08 -0.27 0.06 -0.28 0.06 -0.27 0.04 -0.29 0.02 -0.28 0.01 0 0 -0.29 0 -0.28 -0.02 -0.28 -0.03 -0.27 -0.05 -0.27 -0.06 -0.27 -0.07 -0.26 -0.08 -0.25 -0.1 -0.25 -0.11 -0.24 -0.12 -0.24 -0.13 -0.23 -0.14 -0.22 -0.16 -0.21 -0.16 -0.21 -0.17 -0.19 -0.18 -0.19 -0.2 -0.18 -0.2 -0.17 -0.2 -0.15 -0.22 -0.15 -0.23 -0.14 -0.23 -0.13 -0.24 -0.11 -0.24 -0.1 -0.25 -0.09 -0.26 -0.08 -0.26 -0.07 -0.27 -0.05 -0.27 -0.04 -0.28 -0.03 -0.28 -0.01 -0.29 0 0zm5.01 -154.39l1.96 154.3 -2.79 0.04 -1.96 -154.3 2.79 -0.04zm-6.97 0.09l0 0 0 -0.28 0.02 -0.29 0.03 -0.28 0.05 -0.27 0.06 -0.27 0.07 -0.26 0.08 -0.26 0.1 -0.26 0.11 -0.25 0.12 -0.24 0.13 -0.23 0.14 -0.23 0.15 -0.22 0.17 -0.21 0.17 -0.21 0.18 -0.2 0.19 -0.18 0.2 -0.18 0.21 -0.17 0.22 -0.16 0.22 -0.15 0.24 -0.13 0.23 -0.13 0.25 -0.12 0.25 -0.1 0.26 -0.09 0.26 -0.08 0.27 -0.07 0.27 -0.05 0.28 -0.04 0.28 -0.02 0.29 -0.01 0 0 0.29 0 0.28 0.02 0.28 0.03 0.27 0.05 0.27 0.05 0.27 0.08 0.26 0.08 0.25 0.1 0.25 0.11 0.24 0.12 0.24 0.13 0.23 0.14 0.22 0.15 0.21 0.17 0.2 0.17 0.2 0.18 0.19 0.2 0.18 0.2 0.16 0.2 0.16 0.22 0.15 0.23 0.14 0.23 0.12 0.24 0.12 0.24 0.1 0.25 0.09 0.26 0.08 0.26 0.07 0.27 0.05 0.27 0.04 0.28 0.03 0.28 0.01 0.29 0 0 -0.01 0.29 -0.02 0.28 -0.03 0.28 -0.04 0.27 -0.06 0.27 -0.07 0.27 -0.09 0.26 -0.1 0.25 -0.1 0.25 -0.12 0.24 -0.14 0.23 -0.14 0.23 -0.15 0.22 -0.16 0.22 -0.18 0.2 -0.18 0.2 -0.19 0.18 -0.2 0.18 -0.21 0.17 -0.22 0.16 -0.22 0.15 -0.23 0.14 -0.24 0.12 -0.25 0.12 -0.25 0.1 -0.26 0.09 -0.26 0.08 -0.27 0.07 -0.27 0.05 -0.28 0.04 -0.28 0.02 -0.29 0.01 0 0 -0.28 0 -0.29 -0.02 -0.28 -0.03 -0.27 -0.04 -0.27 -0.06 -0.27 -0.08 -0.25 -0.08 -0.26 -0.1 -0.25 -0.11 -0.24 -0.12 -0.23 -0.13 -0.23 -0.14 -0.22 -0.15 -0.22 -0.17 -0.2 -0.17 -0.2 -0.18 -0.18 -0.19 -0.18 -0.2 -0.17 -0.21 -0.16 -0.22 -0.15 -0.22 -0.13 -0.24 -0.13 -0.23 -0.12 -0.25 -0.1 -0.25 -0.09 -0.26 -0.08 -0.26 -0.06 -0.27 -0.06 -0.27 -0.04 -0.28 -0.02 -0.28 -0.01 -0.29z"/>
  </g>
  <line fill="none" stroke="red" stroke-width="2.79" stroke-miterlimit="22.9256" x1="594.28" y1="236.31" x2="492.38" y2= "387.36" />
  <text x="8.14" y="335.46"  fill="black" font-weight="normal" font-size="72.4px" font-family="Wingdings">‚</text>
  <text x="8.14" y="123.55"  fill="black" font-weight="normal" font-size="72.4px" font-family="Wingdings"></text>
  <text x="167.71" y="218.83"  fill="black" font-weight="normal" font-size="44.61px" font-family="Arial">A</text>
  <text x="482.35" y="218.83"  fill="black" font-weight="normal" font-size="44.61px" font-family="Arial">B</text>
  <text x="430.69" y="32.48"  fill="black" font-weight="normal" font-size="44.61px" font-family="Arial">C</text>
  <text x="402.03" y="218.83"  fill="black" font-weight="normal" font-size="44.61px" font-family="Arial">D</text>
  <text x="167.71" y="440.96"  fill="black" font-weight="normal" font-size="44.61px" font-family="Arial">A</text>
  <text x="482.35" y="440.96"  fill="black" font-weight="normal" font-size="44.61px" font-family="Arial">B</text>
  <text x="585.13" y="440.96"  fill="black" font-weight="normal" font-size="44.61px" font-family="Arial">D</text>
  <text x="614.26" y="253.22"  fill="black" font-weight="normal" font-size="44.61px" font-family="Arial">C</text>
  <polyline fill="none" stroke="black" stroke-width="1.05" stroke-miterlimit="22.9256" points="615.02,387.75 615.02,368.7 576.92,368.7 576.92,387.75 "/>
 </g>
</svg>
