<?xml version="1.0" encoding="UTF-8"?>
<!DOCTYPE svg PUBLIC "-//W3C//DTD SVG 1.1//EN" "http://www.w3.org/Graphics/SVG/1.1/DTD/svg11.dtd">
<!-- Creator: CorelDRAW 2017 -->
<svg xmlns="http://www.w3.org/2000/svg" xml:space="preserve" width="1200px" height="959px" version="1.1" shape-rendering="geometricPrecision" text-rendering="geometricPrecision" image-rendering="optimizeQuality" fill-rule="evenodd" clip-rule="evenodd"
viewBox="0 0 1202.53 960.76"
 xmlns:xlink="http://www.w3.org/1999/xlink">
 <g id="Layer_x0020_1">
  <metadata id="CorelCorpID_0Corel-Layer"/>
  <rect fill="#D0EBFA" y="653.4" width="1199.59" height="307.36"/>
  <rect fill="#FEF8C9" width="1199.59" height="653.7"/>
  <g id="_2609779248336">
   <path fill="#4885B5" d="M251.19 217.6c-8.39,4.68 -24.9,34.99 -28.56,47.9 25.13,1.92 15.2,0.53 30.81,-7.4 6.57,-3.33 7.64,0.54 19.15,-4.59 24.33,-10.85 13.6,-3.93 26.3,-9.23l25.1 -10.71c6.15,-3.88 7.76,-1.04 31.27,-9.8l17.07 -9.27c0.2,-0.02 0.88,0.13 1.1,0.12l17.31 -3.81c4.45,-1.61 1.55,0.93 5.43,-2.91 6.13,-6.06 1.19,-2.44 1.3,-3.58 0.15,0.09 1.24,7.3 18.77,-2.33 0.69,-0.37 2.45,-1.62 3.12,-1.98l58.07 -18.42c-5.73,-8.02 -42.72,-29.17 -52.83,-30.4 -2.14,12.86 2.72,4.71 -5.58,8.05 -6.16,2.49 -5.76,4.38 -7.38,-2.77 -1.83,11.28 -3.54,7.82 -14.3,11.42l-37.18 15.51c-26.29,20.49 1.96,-0.98 -34.36,9.33 -21.62,6.13 -54.02,22.92 -74.61,24.87z"/>
   <path fill="#4885B5" d="M516.48 123.74c-5.74,4.41 -20.1,30.34 -22.99,38.82l32.14 17.66c4.39,-16.41 -5.54,12.73 4.72,-5.56 1.62,-2.88 1.44,-1.13 -2.16,-7.29 21.69,0.63 3.81,4.42 18.65,-5.06l1.32 2.33c0.22,0.43 -0.13,0.02 1.21,2.55 6.89,-2.91 -2.94,-8.59 28.85,-3.92 -5.81,-8.9 -12.23,-11.15 -13.9,-23.7 -2.07,-15.58 4.19,-18.69 6.16,-28.51 -5.57,-7.02 -2.54,10.75 -16.04,-4.21 0.21,0.33 0.15,1.02 0.11,1.17l-1.39 3.46c-3.78,3.8 -6.13,2.37 -13.37,5.64l-23.31 6.62z"/>
  </g>
  <g id="_2609779248784">
   <path fill="#3B78A8" d="M197.97 388.84c-0.99,7.38 -0.28,8.49 2.77,15.86 0.6,1.45 2.51,5.5 3.39,6.85l6.81 7.54c5.19,-16.45 6.71,3.46 28.5,-17.26 3.51,-3.33 2.08,-2.43 5.3,-3.99l7.35 -2.46c4.08,-1.31 5.18,-1.62 7.71,-2.48 0.79,-0.28 3.17,-1.06 3.94,-1.36 26.52,-10.31 19.61,-3.99 35.54,-14.29 6.88,-4.45 -8.88,0.86 4.6,-1.83 12.89,-2.57 4.85,1.46 17.06,-5.3l10.45 1.08c0.65,0.06 2.73,0.03 3.45,-0.06 20.25,-2.48 35.42,-15.85 56.5,-19.96 17.43,-3.4 7.26,-7.56 24.03,-8.8 11.63,-0.87 20.09,-6 29.81,-10.31 7.77,-3.45 6.51,-2.53 14.86,-5.45l25.92 -9.48c26.68,-14.73 13.71,-4.43 24.09,-9.72 17.94,-9.13 9,-3.84 26.64,-7.79 12.8,-2.86 4.56,-2.75 12.38,-5.63 0.17,-0.07 11,-2.34 14.02,-3.36 5.05,-1.7 10.32,-4.02 14.82,-5.54 10.46,-3.54 19.29,-8.86 27.73,-11.12l13.45 -2.98c16.9,-3.94 10.35,1.39 12.64,-4.19 0.38,-0.92 1.42,-0.62 1.97,-1.14 -16.78,-0.62 -26.23,-17.3 -42.07,-18.28 -10.03,-1.35 -13.33,1.8 -22.77,5.51l-85.95 30.37c-5.71,2.87 -14.55,5.58 -21.88,8.39 -18.48,7.09 -16.68,3.3 -23.07,4.89 -6.34,1.57 2.19,-1.91 -3.71,1.89 -11.68,7.51 -21.09,9.72 -37.48,15.41l-60.96 19.96c-20.9,12.93 -25.8,9.41 -37.36,12.24 -4.76,1.17 -0.81,-0.08 -4.21,1.74 -9.03,4.86 -18.09,15.66 -38.54,7.74 -0.04,0.11 1.16,6.78 -5.73,11.29 -11.29,-2.44 0.28,0.11 -5.78,-3.08 -6.32,-3.33 3.01,-1.02 -6.22,-2.99 -2.38,6.74 5.86,7.19 -13.46,13.82l-9.41 2.69c-0.32,0.1 -1.03,0.3 -1.34,0.42l-2.72 1.19c-0.58,0.29 -2.28,1.3 -2.88,1.67 -5.74,3.51 -5.62,2.81 -10.19,8.3z"/>
   <path fill="#3B78A8" d="M607.58 227.72l33.03 20.52 -5.73 14.4c8.68,1.66 29.86,-10.43 35.11,-12.22 7.64,-2.61 12.23,-0.63 19.49,-5.88 7.85,-5.66 -7.5,-3.33 11.19,-4.41l20.13 -4.97c10.25,-3.6 20.84,-4.03 31.94,-11.31l11.45 -6.17c18.87,-5.68 43.48,-17.32 62.11,-17.36 -3.28,-10.04 -8.46,-17.65 -13.95,-24.78 -4.22,-5.49 -3.14,-4.01 -8.48,-9.34 -7.29,-7.28 -3,-6.43 -10.95,-7.62 -13.64,-0.4 -50.04,9.71 -56.95,13.55 -6.08,3.38 -11.02,5.93 -16.98,7.3 2.29,4.62 1.29,3.63 -0.42,6.33 -2.81,-2.05 2.21,-4.97 -15.38,1.7 -20.2,7.66 -14.74,-0.22 -21.67,4.43 -0.36,0.24 -1.11,1.27 -1.57,1.57 -7.95,5.25 -10.13,2.27 -17.83,6.27l-30.05 12.97c-26.5,10.64 -28.47,4.74 -24.49,15.02z"/>
  </g>
  <g id="_2609779250512">
   <path fill="#384E56" d="M523.38 891.73c-86.45,5.23 -170.33,-10.67 -238.14,-57.4 -15.09,-10.4 -44.84,-32.47 -52.64,-46.67l101.56 -0.73 73.2 -11.58c12.06,-6.48 17.13,-1.32 14.15,-16.84 -13.74,-5.26 -61.01,14.16 -85.49,10.6 -15.17,9.42 -96.1,3.01 -118.77,1.53 -9.43,-22.51 -43.95,-62.34 -47.87,-117.52l803.21 0.21c-5.49,20.51 -63.06,84.8 -75.08,95.31 -102.82,89.92 -222.65,141.75 -374.13,143.09zm520.28 -435.19l1.55 26.02c25.52,-6.89 38.12,-13.92 68.73,-13.7 32.12,0.24 40.45,8.27 64.28,14.8 -5.85,22.38 -34,45.12 -55.76,54.45 -31.1,13.34 -60.55,13.09 -96.79,12.17 -10.91,30.29 -25.17,60.7 -40.26,85.16 -26.61,-3.99 -33.83,-12.69 -51.23,-19.61 -6.94,6.34 -14.17,12.32 -27.27,16.49 -44.55,19 -179.5,12.44 -202.51,-24.58 -30.05,15.91 -39.54,33.96 -104.4,34.05 -34.77,0.05 -68.18,-6.34 -94.53,-27.63 -6.96,-5.62 -1.03,-2.73 -10.22,-6.73 -22.61,37.56 -138.71,38.6 -182.35,30.21 -26.14,-5.03 -34.3,-13.32 -49.61,-22.49 -36.35,15.41 -39.07,23.27 -96.37,23.74 -2.22,-21.52 -4.42,-44.8 -0.58,-67.02 23.45,-3.05 401.58,-0.83 436.19,-0.83 71.32,0 146.96,-2.4 217.72,0.38 35.9,1.41 68.61,0.4 101.62,-8.51 22.34,-6.02 60.74,-21.5 72.04,-35.36 -7.55,-11.14 -15.02,-14.49 -22.98,-32.06 -18.85,-41.56 -13.6,-96.26 11.78,-132.11 20.5,12.09 56.68,53.95 60.95,93.16zm-147.46 84.91c-9.07,12.1 -1.93,10.33 -22.3,10.96l-386.32 0.15 -220.16 0.05 -17.69 -0.51 0.85 -4.73 -4.4 2.1c-7.48,2.88 0.29,0.74 -6.43,2.3l-90.38 0.66c-5.31,22.79 -2.53,56.55 -2.53,83.54 -45.22,-3.76 -65.27,-30.05 -75.95,-32.91 4.68,20.13 -8.05,25.95 -24.42,33.82 -28.95,13.92 -38.05,5.32 -46.47,16.82l149.37 0c2.84,34.22 27.74,92.85 48.79,120.83 52.81,70.16 119.22,113.4 210.12,129.11 97.16,16.81 207.91,6.93 299.66,-23.02 81.04,-26.45 153.04,-67.55 213.02,-126.22l29.49 -33.8c12.23,-15.65 40.41,-46.87 44.49,-64.37l205.06 0c-5.34,-19.99 -80.55,-7.55 -70.89,-53.17 -14.08,1.18 -31.26,34.71 -101.26,34.71 -6.17,0 -7.75,-1.8 -17.72,-1.8l30.38 -65.82c65.21,0 100.23,-10.3 138.65,-51.22 6.82,-7.26 22.4,-30.82 23.37,-42.45 -46.39,-24.55 -52.59,-25.42 -101.35,-25.4 -17.9,0 -23.76,3.97 -37.89,5.15 -14.52,-62.34 -35.79,-79.68 -81.01,-118.99 -20.6,13.79 -39.72,52.04 -40.6,85.99 -0.6,23.46 -0.3,41.44 4.8,58.67 6.75,22.76 17.44,37.53 18.08,45.21 -15.48,3.61 -37.63,20.26 -68.36,20.26l0 -5.92z"/>
   <path fill="#384E56" d="M473.43 727.11l-12.16 0.47 -3.04 -14.16c-19.3,0.94 -28.71,19.16 -15.35,31.58 13.17,12.24 33.16,3.4 30.55,-17.89z"/>
  </g>
  <path fill="#0399C5" d="M443.63 709.44c34.36,-17.93 52.49,31.55 24.69,45.35 -21.06,10.45 -44.45,-7.55 -37.4,-31.85 2.97,-10.25 6.77,-10.4 12.71,-13.5zm-107.61 59.67c24.48,3.56 71.75,-15.86 85.49,-10.6 2.98,15.52 -2.09,10.36 -14.15,16.84 3.65,13.58 14.47,24.48 16.57,35.78 9.32,5.49 3.94,4.15 11.01,10.64 6.08,-4.67 -1.91,-0.9 5.97,-2.59 8.77,-1.87 57.29,2.83 128.66,-13.35 39.75,-9.02 77,-22.05 112.66,-37.07 46.68,-19.66 160.77,-79.83 189.79,-112.12l-655.89 -1.61c8.71,41.66 38.52,85.61 68.48,108.98 15.48,12.09 30.09,-0.3 51.41,5.1z"/>
  <path fill="#23B7E9" d="M906.91 632.32c2.51,-4.47 -0.48,-0.75 4.42,-6.52l78.29 -73.62c5.38,-5.91 53.02,-58.29 55.5,-64.93 1.41,-3.78 -0.69,-22.81 -1.46,-30.71 -4.27,-39.21 -40.45,-81.07 -60.95,-93.16 -25.38,35.85 -30.63,90.55 -11.78,132.11 7.96,17.57 15.43,20.92 22.98,32.06 -11.3,13.86 -49.7,29.34 -72.04,35.36 -33.01,8.91 -65.72,9.92 -101.62,8.51 -70.76,-2.78 -146.4,-0.38 -217.72,-0.38 -34.61,0 -412.74,-2.22 -436.19,0.83 -3.84,22.22 -1.64,45.5 0.58,67.02 57.3,-0.47 60.02,-8.33 96.37,-23.74 15.31,9.17 23.47,17.46 49.61,22.49 43.64,8.39 159.74,7.35 182.35,-30.21 9.19,4 3.26,1.11 10.22,6.73 26.35,21.29 59.76,27.68 94.53,27.63 64.86,-0.09 74.35,-18.14 104.4,-34.05 23.01,37.02 157.96,43.58 202.51,24.58z"/>
  <path fill="#008BB8" d="M336.02 769.11c-21.32,-5.4 -35.93,6.99 -51.41,-5.1 -29.96,-23.37 -59.77,-67.32 -68.48,-108.98l655.89 1.61c-29.02,32.29 -143.11,92.46 -189.79,112.12 -35.66,15.02 -72.91,28.05 -112.66,37.07 -71.37,16.18 -119.89,11.48 -128.66,13.35 -7.88,1.69 0.11,-2.08 -5.97,2.59 10.44,16.03 24.51,28.14 40.4,40.18 14.32,10.85 36.97,20.49 48.04,29.78 151.48,-1.34 271.31,-53.17 374.13,-143.09 12.02,-10.51 69.59,-74.8 75.08,-95.31l-803.21 -0.21c3.92,55.18 38.44,95.01 47.87,117.52 22.67,1.48 103.6,7.89 118.77,-1.53z"/>
  <path fill="#FDFDFD" d="M516.48 123.74c5.41,-18.06 17.78,-34.27 29.26,-45.83 30.19,-30.4 72.85,-17.96 110.76,-2.17 12.72,5.3 38.52,14.8 47.83,24.34 11.11,0.45 49.11,24.3 54.78,33.36 9.63,1.77 24.08,13.57 31.23,21.72l2.58 3.42c7.95,1.19 3.66,0.34 10.95,7.62 5.34,5.33 4.26,3.85 8.48,9.34 5.49,7.13 10.67,14.74 13.95,24.78 4.86,10.2 13.33,36.01 5.7,47.75 1.48,15.38 -13.36,42.77 -23.3,55.11l-2.86 3.07c-0.24,-0.45 -1,1.04 -1.54,1.52 -0.77,10.32 -33.38,61.39 -41.51,75.76 -15.63,27.66 -27.27,52.37 -51.74,67.26 -31.33,19.04 -61.57,16.11 -92.16,-0.81 -5.83,-3.22 -69.25,-38.16 -73.43,-43.72 -13.57,-4.65 -34.9,-18.48 -47.12,-25.57 -7.84,-4.56 -14.72,-8.66 -22.4,-13.08 -6.54,-3.76 -14.67,-6.43 -20.26,-10.19 -47.29,-9.43 -83.85,0 -111.08,25.66 -21.19,19.98 -36.22,60.77 -55.99,88.58 -9.01,-1.45 -72.43,-35.58 -77.67,-52.57l-6.81 -7.54c-0.88,-1.35 -2.79,-5.4 -3.39,-6.85 -3.05,-7.37 -3.76,-8.48 -2.77,-15.86l-4.14 -13.48c-0.46,-4.26 -0.19,-11.04 0.08,-15.41 0.45,-7.37 1.01,-16.75 3.72,-22.72 2.62,-16.21 16.83,-63.67 25,-71.73 3.66,-12.91 20.17,-43.22 28.56,-47.9 4.12,-12.29 22.07,-29.94 30.2,-39.5 9.2,-10.83 22.11,-22.7 37.16,-31.14 25.45,-14.26 88.41,-21.23 106.05,4.23 10.11,1.23 47.1,22.38 52.83,30.4 9.78,0.95 7.25,1.63 15.8,6.67 5.09,3 8.75,4.99 14.43,8.38 9.12,5.43 19.87,9.55 26.86,15.98 11.01,4.92 19.12,10.53 29.52,16.28 10.22,5.66 21.85,9.93 27.59,18.49 15.84,0.98 25.29,17.66 42.07,18.28l1.18 -3.03 5.73 -14.4 -33.03 -20.52c-9.74,-3.54 -16.98,-8.08 -26.31,-13.58 -7.29,-4.3 -16.72,-8.24 -20.34,-13.48 -9.41,-3.08 -31.28,-14.49 -35.3,-20.44l-32.14 -17.66c2.89,-8.48 17.25,-34.41 22.99,-38.82zm-34.33 21.1l-5.86 13.05 -4.61 -2.93c-46.84,-26.06 -95.16,-59.04 -159.5,-24.53 -38.55,20.69 -98.12,92.4 -98.36,110.61 -16.48,45.1 -48.29,97.21 -33.33,156.1 12.82,50.46 59.99,68.4 102.32,92.57 -2.56,5.12 -3.6,8.03 -6.21,12.52l-8.25 10.94c-0.4,0.3 -1.03,0.33 -1.17,0.98 -0.14,0.66 -0.98,0.81 -1.17,1.02 -2.59,2.77 -1.27,0.97 -3.26,3.76l-10.33 17.75c-5.41,10.64 -3.72,2.7 -1.84,10.69l-0.85 4.73 17.69 0.51 11.07 -17.91 24.12 -43.33c7.95,-18.8 32.91,-59.94 44.58,-77.77 14.45,-22.08 42.95,-43.5 83.3,-39.34 26.47,2.73 62.67,27.73 83.06,39.3 10.73,6.09 69.18,36.75 76.28,46.34 18.65,2.31 33.16,24.06 73.45,24.31 14.67,0.08 27.94,-2.63 40.73,-7.57 12.52,-4.83 23.46,-14.67 33.04,-16.53 5.24,-8.84 11.78,-13.24 18.61,-22.95l41.33 -72.46c9.46,2.67 47.7,25.32 57.74,31.77 18.45,11.85 32.33,23.44 36.98,52.15 3.69,9.45 3.35,30.46 -1.6,37.28 0.94,9.39 -0.12,14.89 -2.93,23.07l-13.28 43.44c20.37,-0.63 13.23,1.14 22.3,-10.96 5.27,-8.85 13.46,-47.02 14.88,-60.22 8.04,-74.31 -36.04,-93.06 -77.1,-117.21 -8.45,-4.97 -17.21,-11.98 -26.38,-14.12 0.84,-10.19 11.74,-25.09 16.92,-33.71 6.42,-10.68 14.32,-22.82 18.98,-34.18 10.57,-25.78 12.27,-57.22 1.08,-85.55 -15.32,-38.79 -55.21,-68.51 -90.28,-89.46 -7.37,-4.4 -9.45,-6.53 -16.76,-11.1l-24.85 -13.12c-37.37,-18.56 -85.24,-43.34 -127.83,-41.89 -61.43,2.1 -102.62,99.03 -102.71,103.95z"/>
  <path fill="#3370A0" d="M455.68 357.42c5.59,3.76 13.72,6.43 20.26,10.19 7.68,4.42 14.56,8.52 22.4,13.08 12.22,7.09 33.55,20.92 47.12,25.57 3.9,-14.29 4.95,-9.1 11.19,-22.52 1.03,-2.21 0.1,-2.27 2.84,-4.79 0.7,2.06 0.49,-0.9 -0.96,7.36 8.82,-1.07 11.64,-2.13 17.93,-6.29l8.35 -8.74c0.18,0.4 -10.79,5.6 7.74,2.29 9.73,-1.74 -1.21,-4.4 12.51,1.76 2.32,-3.03 4.96,-6.25 7.87,-8.87 5.21,-4.69 28.49,-8.14 35.64,-10.61 27.58,-9.54 33.94,-8.95 46.39,-24.92 3.86,5.99 5.18,5.48 10.75,4 0.55,-0.15 1.23,-0.47 1.81,-0.64 0.61,-0.18 1.27,-0.47 1.9,-0.66l10.69 -2.6c22.15,-5.01 5.86,-7.42 24.2,-11.08 7.23,-1.43 10.53,-0.18 21.45,-6.82 13.4,-8.15 4.81,-0.91 19.11,-5.59 7.6,-2.49 6.45,-4.06 17.66,-5.64 2,2.78 1,-0.22 1.77,5.87 0.54,-0.48 1.3,-1.97 1.54,-1.52l2.86 -3.07c9.94,-12.34 24.78,-39.73 23.3,-55.11l-4.15 -11.68c-47.13,3.79 -60.36,16.06 -91.17,23.64l-2.9 0.78c-8.09,1.39 -7.92,4.05 -8.05,-2.69 -2.09,13.57 0.39,4.34 -12.34,10.8 -0.48,0.25 -1.13,0.57 -1.59,0.83l-11.6 6.34c-11.6,3.31 -28.81,6.24 -41.03,12.59 -4.79,2.49 -3.87,5.79 -18.81,8.77l-75.35 25.39c-20.71,8.86 -35.51,5.24 -48.83,9.75 -5.73,1.93 -11.4,4.04 -16.36,5.01 -20.38,3.98 -10.98,2.96 -13.74,-2.9l2.51 7.38c-15.36,2.78 -23.35,9.72 -35.44,10.34 5.47,0.1 0.01,-0.95 2.53,5z"/>
  <path fill="#2E6A9B" d="M545.46 406.26c4.18,5.56 67.6,40.5 73.43,43.72 30.59,16.92 60.83,19.85 92.16,0.81 24.47,-14.89 36.11,-39.6 51.74,-67.26 8.13,-14.37 40.74,-65.44 41.51,-75.76 -0.77,-6.09 0.23,-3.09 -1.77,-5.87 -11.21,1.58 -10.06,3.15 -17.66,5.64 -14.3,4.68 -5.71,-2.56 -19.11,5.59 -10.92,6.64 -14.22,5.39 -21.45,6.82 -18.34,3.66 -2.05,6.07 -24.2,11.08l-10.69 2.6c-0.63,0.19 -1.29,0.48 -1.9,0.66 -0.58,0.17 -1.26,0.49 -1.81,0.64 -5.57,1.48 -6.89,1.99 -10.75,-4 -12.45,15.97 -18.81,15.38 -46.39,24.92 -7.15,2.47 -30.43,5.92 -35.64,10.61 -2.91,2.62 -5.55,5.84 -7.87,8.87 -13.72,-6.16 -2.78,-3.5 -12.51,-1.76 -18.53,3.31 -7.56,-1.89 -7.74,-2.29l-8.35 8.74c-6.29,4.16 -9.11,5.22 -17.93,6.29 1.45,-8.26 1.66,-5.3 0.96,-7.36 -2.74,2.52 -1.81,2.58 -2.84,4.79 -6.24,13.42 -7.29,8.23 -11.19,22.52z"/>
  <path fill="#3774A4" d="M634.88 262.64l-1.18 3.03c-0.55,0.52 -1.59,0.22 -1.97,1.14 -2.29,5.58 4.26,0.25 -12.64,4.19l-13.45 2.98c-8.44,2.26 -17.27,7.58 -27.73,11.12 -4.5,1.52 -9.77,3.84 -14.82,5.54 -3.02,1.02 -13.85,3.29 -14.02,3.36 -7.82,2.88 0.42,2.77 -12.38,5.63 -17.64,3.95 -8.7,-1.34 -26.64,7.79 -10.38,5.29 2.59,-5.01 -24.09,9.72l-25.92 9.48c-8.35,2.92 -7.09,2 -14.86,5.45 -9.72,4.31 -18.18,9.44 -29.81,10.31 -16.77,1.24 -6.6,5.4 -24.03,8.8 -21.08,4.11 -36.25,17.48 -56.5,19.96 -0.72,0.09 -2.8,0.12 -3.45,0.06l-10.45 -1.08c-12.21,6.76 -4.17,2.73 -17.06,5.3 -13.48,2.69 2.28,-2.62 -4.6,1.83 -15.93,10.3 -9.02,3.98 -35.54,14.29 -0.77,0.3 -3.15,1.08 -3.94,1.36 -2.53,0.86 -3.63,1.17 -7.71,2.48l-7.35 2.46c-3.22,1.56 -1.79,0.66 -5.3,3.99 -21.79,20.72 -23.31,0.81 -28.5,17.26 5.24,16.99 68.66,51.12 77.67,52.57 19.77,-27.81 34.8,-68.6 55.99,-88.58 27.23,-25.66 63.79,-35.09 111.08,-25.66 -2.52,-5.95 2.94,-4.9 -2.53,-5 12.09,-0.62 20.08,-7.56 35.44,-10.34l-2.51 -7.38c2.76,5.86 -6.64,6.88 13.74,2.9 4.96,-0.97 10.63,-3.08 16.36,-5.01 13.32,-4.51 28.12,-0.89 48.83,-9.75l75.35 -25.39c14.94,-2.98 14.02,-6.28 18.81,-8.77 12.22,-6.35 29.43,-9.28 41.03,-12.59l11.6 -6.34c0.46,-0.26 1.11,-0.58 1.59,-0.83 12.73,-6.46 10.25,2.77 12.34,-10.8 0.13,6.74 -0.04,4.08 8.05,2.69l2.9 -0.78c30.81,-7.58 44.04,-19.85 91.17,-23.64l4.15 11.68c7.63,-11.74 -0.84,-37.55 -5.7,-47.75 -18.63,0.04 -43.24,11.68 -62.11,17.36l-11.45 6.17c-11.1,7.28 -21.69,7.71 -31.94,11.31l-20.13 4.97c-18.69,1.08 -3.34,-1.25 -11.19,4.41 -7.26,5.25 -11.85,3.27 -19.49,5.88 -5.25,1.79 -26.43,13.88 -35.11,12.22z"/>
  <path fill="#FBE66B" d="M737.05 460.11c-9.58,1.86 -20.52,11.7 -33.04,16.53 -12.79,4.94 -26.06,7.65 -40.73,7.57 -40.29,-0.25 -54.8,-22 -73.45,-24.31 -11.37,4.95 -7.61,1.57 -13,1.56l-17.35 3.75c-10.04,0.23 -7.02,-3.18 -19.84,1.9 -5.14,2.03 3.77,-0.39 -4.48,1.92l-28.09 2.06c-0.63,0.06 -2.2,0.37 -2.79,0.46 -0.34,0.05 -1.05,0.23 -1.38,0.28 -0.35,0.06 -1.09,0.21 -1.44,0.26l-11.5 -0.3c-11.64,-1.58 -5.02,3.39 -14.14,0.7 -8.93,-2.64 0.36,1.21 -2.4,-3.05l-5.07 6.98c-16.96,0.28 -18.85,-2.88 -35.37,2.93 -23.73,8.34 -19.42,-3.08 -20.32,-4.78 -4.92,0.38 -11.86,1.92 -16.13,3.72 -28.23,11.91 -14.68,2.38 -36.76,7.67l-57.16 5.41 -24.12 43.33c20.21,-6.52 52.09,-4.96 80.42,-10.96 19.66,-4.17 56.61,0.16 77.99,-5.44 12.13,-3.17 34.55,0.01 58.07,-6.27 12.15,-3.25 4.33,-3.8 17.31,-3.67l39.12 -2.49c9.37,-3.88 4.09,-5.69 18.14,-1.72 7.39,2.08 12.98,3.48 16.35,3.14 6.67,-0.68 7.52,-3.43 14.46,-5.27 30.17,-7.97 63.39,-2.87 63.8,-2.95 1.97,-0.38 2.25,-0.95 6.94,-2.21 41.48,-11.14 40.18,-0.71 44.21,-0.91l4.33 -1.25c10.48,-2.23 7.59,1.18 18.94,-3.86l14.97 -4.88c27.41,-4.98 39.35,2.21 48.98,0.16 25.47,-5.43 56.21,-11.65 86.09,-12.19l1.5 11.97c4.95,-6.82 5.29,-27.83 1.6,-37.28 -31.35,-11.68 -2.13,-4.63 -41.08,-4.55l-2.39 3.25c-0.07,0.04 -5.87,2.4 -6.21,2.47l-47.66 6.8c0,0.07 0.67,2.27 0.57,0.49 -35.55,-0.65 -5.78,-5.44 -40.82,0.7 -5.67,0.99 -11.75,1.35 -17.07,2.33z"/>
  <path fill="#FAEA74" d="M302.61 491.37l57.16 -5.41c22.08,-5.29 8.53,4.24 36.76,-7.67 4.27,-1.8 11.21,-3.34 16.13,-3.72 0.9,1.7 -3.41,13.12 20.32,4.78 16.52,-5.81 18.41,-2.65 35.37,-2.93l5.07 -6.98c2.76,4.26 -6.53,0.41 2.4,3.05 9.12,2.69 2.5,-2.28 14.14,-0.7l11.5 0.3c0.35,-0.05 1.09,-0.2 1.44,-0.26 0.33,-0.05 1.04,-0.23 1.38,-0.28 0.59,-0.09 2.16,-0.4 2.79,-0.46l28.09 -2.06c8.25,-2.31 -0.66,0.11 4.48,-1.92 12.82,-5.08 9.8,-1.67 19.84,-1.9l17.35 -3.75c5.39,0.01 1.63,3.39 13,-1.56 -7.1,-9.59 -65.55,-40.25 -76.28,-46.34 -20.39,-11.57 -56.59,-36.57 -83.06,-39.3 -40.35,-4.16 -68.85,17.26 -83.3,39.34 -11.67,17.83 -36.63,58.97 -44.58,77.77z"/>
  <path fill="#FBE364" d="M278.49 534.7l-11.07 17.91 220.16 -0.05 3.64 -10.43c17.17,1.56 25.24,2.39 35.36,-2.51 3.05,5.02 -1.05,4.67 5.07,6.51 6.97,-5.12 2.76,-3.24 7.72,-11.16 14.6,2.97 13.48,7.48 27.12,7.54 10.5,0.05 2.55,0.26 12.72,-3.43l17.26 -3.82c0.39,-0.11 1.1,-0.37 1.51,-0.49 0.45,-0.14 1.15,-0.43 1.63,-0.57 24.08,-7.28 21.64,3.02 33.97,-1.61 18.08,-6.8 3.48,1.64 15.66,-2.56 13.89,-4.79 -0.92,-11.31 22.23,-7.54 9.82,1.59 2.57,0.53 11.85,-2.19 8.6,-2.52 1.98,-0.49 6.73,-1.18l8.1 -1.46c8.27,-1.1 3.07,0.8 11.98,2.24 4.85,0.79 1.31,0.44 6.67,-0.14l6.76 -0.86c33.07,-2.21 26.25,0.29 30.06,-8.4 4.43,4.5 5.89,4.97 13.62,6.44l48.31 -2.2c9.79,-0.64 -3.88,-2.47 14.67,-3.07 11.38,-0.36 7.52,1.78 18.78,0.7 17.18,-1.64 26.17,-1.86 38.18,-3.4 2.81,-8.18 3.87,-13.68 2.93,-23.07l-1.5 -11.97c-29.88,0.54 -60.62,6.76 -86.09,12.19 -9.63,2.05 -21.57,-5.14 -48.98,-0.16l-14.97 4.88c-11.35,5.04 -8.46,1.63 -18.94,3.86l-4.33 1.25c-4.03,0.2 -2.73,-10.23 -44.21,0.91 -4.69,1.26 -4.97,1.83 -6.94,2.21 -0.41,0.08 -33.63,-5.02 -63.8,2.95 -6.94,1.84 -7.79,4.59 -14.46,5.27 -3.37,0.34 -8.96,-1.06 -16.35,-3.14 -14.05,-3.97 -8.77,-2.16 -18.14,1.72l-39.12 2.49c-12.98,-0.13 -5.16,0.42 -17.31,3.67 -23.52,6.28 -45.94,3.1 -58.07,6.27 -21.38,5.6 -58.33,1.27 -77.99,5.44 -28.33,6 -60.21,4.44 -80.42,10.96z"/>
  <path fill="#4380B0" d="M222.63 265.5c-8.17,8.06 -22.38,55.52 -25,71.73 19.72,-5.39 -6.43,6.72 37.95,-9.9 22.38,-8.38 25.5,-3.98 32.99,-15.19 5.62,7.74 -0.91,4.1 7.2,6.8 4.8,-10.33 -1.99,-0.86 9.58,-5.44l6.23 -3.84c10.86,-12.87 0.93,0.32 32.37,-14.66l16.41 -4.4c12.07,-4.44 14.59,-3.52 26.2,-9.55 0.51,-0.26 1.09,-0.69 1.6,-0.95 12.39,-6.35 7.68,0.09 14.77,-9.14 8.15,-10.6 7.72,-0.57 24.72,-6.75l9.14 -3c22.13,-2.29 8.6,-1.47 22.01,-6.11 29.88,-10.33 16.74,-8.46 27.53,-13.33 24.82,-11.2 17.01,-8.85 24.22,-5.62 14.45,6.48 23.39,-4.58 26.69,-6.92 15.9,-11.27 20.87,0.91 17.28,-16.61 -6.99,-6.43 -17.74,-10.55 -26.86,-15.98 -5.68,-3.39 -9.34,-5.38 -14.43,-8.38 -8.55,-5.04 -6.02,-5.72 -15.8,-6.67l-58.07 18.42c-0.67,0.36 -2.43,1.61 -3.12,1.98 -17.53,9.63 -18.62,2.42 -18.77,2.33 -0.11,1.14 4.83,-2.48 -1.3,3.58 -3.88,3.84 -0.98,1.3 -5.43,2.91l-17.31 3.81c-0.22,0.01 -0.9,-0.14 -1.1,-0.12l-17.07 9.27c-23.51,8.76 -25.12,5.92 -31.27,9.8l-25.1 10.71c-12.7,5.3 -1.97,-1.62 -26.3,9.23 -11.51,5.13 -12.58,1.26 -19.15,4.59 -15.61,7.93 -5.68,9.32 -30.81,7.4z"/>
  <path fill="#407AAB" d="M197.63 337.23c-2.71,5.97 -3.27,15.35 -3.72,22.72 -0.27,4.37 -0.54,11.15 -0.08,15.41l4.14 13.48c4.57,-5.49 4.45,-4.79 10.19,-8.3 0.6,-0.37 2.3,-1.38 2.88,-1.67l2.72 -1.19c0.31,-0.12 1.02,-0.32 1.34,-0.42l9.41 -2.69c19.32,-6.63 11.08,-7.08 13.46,-13.82 9.23,1.97 -0.1,-0.34 6.22,2.99 6.06,3.19 -5.51,0.64 5.78,3.08 6.89,-4.51 5.69,-11.18 5.73,-11.29 20.45,7.92 29.51,-2.88 38.54,-7.74 3.4,-1.82 -0.55,-0.57 4.21,-1.74 11.56,-2.83 16.46,0.69 37.36,-12.24l60.96 -19.96c16.39,-5.69 25.8,-7.9 37.48,-15.41 5.9,-3.8 -2.63,-0.32 3.71,-1.89 6.39,-1.59 4.59,2.2 23.07,-4.89 7.33,-2.81 16.17,-5.52 21.88,-8.39l85.95 -30.37c9.44,-3.71 12.74,-6.86 22.77,-5.51 -5.74,-8.56 -17.37,-12.83 -27.59,-18.49 -10.4,-5.75 -18.51,-11.36 -29.52,-16.28 3.59,17.52 -1.38,5.34 -17.28,16.61 -3.3,2.34 -12.24,13.4 -26.69,6.92 -7.21,-3.23 0.6,-5.58 -24.22,5.62 -10.79,4.87 2.35,3 -27.53,13.33 -13.41,4.64 0.12,3.82 -22.01,6.11l-9.14 3c-17,6.18 -16.57,-3.85 -24.72,6.75 -7.09,9.23 -2.38,2.79 -14.77,9.14 -0.51,0.26 -1.09,0.69 -1.6,0.95 -11.61,6.03 -14.13,5.11 -26.2,9.55l-16.41 4.4c-31.44,14.98 -21.51,1.79 -32.37,14.66l-6.23 3.84c-11.57,4.58 -4.78,-4.89 -9.58,5.44 -8.11,-2.7 -1.58,0.94 -7.2,-6.8 -7.49,11.21 -10.61,6.81 -32.99,15.19 -44.38,16.62 -18.23,4.51 -37.95,9.9z"/>
  <path fill="#01A9D9" d="M906.91 632.32c13.1,-4.17 20.33,-10.15 27.27,-16.49 17.4,6.92 24.62,15.62 51.23,19.61 15.09,-24.46 29.35,-54.87 40.26,-85.16 36.24,0.92 65.69,1.17 96.79,-12.17 21.76,-9.33 49.91,-32.07 55.76,-54.45 -23.83,-6.53 -32.16,-14.56 -64.28,-14.8 -30.61,-0.22 -43.21,6.81 -68.73,13.7l-1.55 -26.02c0.77,7.9 2.87,26.93 1.46,30.71 -2.48,6.64 -50.12,59.02 -55.5,64.93l-78.29 73.62c-4.9,5.77 -1.91,2.05 -4.42,6.52z"/>
  <path fill="#BEDAE0" d="M523.38 891.73c-11.07,-9.29 -33.72,-18.93 -48.04,-29.78 -15.89,-12.04 -29.96,-24.15 -40.4,-40.18 -7.07,-6.49 -1.69,-5.15 -11.01,-10.64 0.43,6.9 1.24,2.04 -1.14,5.63 -41.61,-4.16 -62.28,-11.62 -96.5,-24 16.43,-4.01 -0.01,1.17 7.87,-5.83l-101.56 0.73c7.8,14.2 37.55,36.27 52.64,46.67 67.81,46.73 151.69,62.63 238.14,57.4z"/>
  <path fill="#FCE05D" d="M487.58 552.56l386.32 -0.15 13.28 -43.44c-12.01,1.54 -21,1.76 -38.18,3.4 -11.26,1.08 -7.4,-1.06 -18.78,-0.7 -18.55,0.6 -4.88,2.43 -14.67,3.07l-48.31 2.2c-7.73,-1.47 -9.19,-1.94 -13.62,-6.44 -3.81,8.69 3.01,6.19 -30.06,8.4l-6.76 0.86c-5.36,0.58 -1.82,0.93 -6.67,0.14 -8.91,-1.44 -3.71,-3.34 -11.98,-2.24l-8.1 1.46c-4.75,0.69 1.87,-1.34 -6.73,1.18 -9.28,2.72 -2.03,3.78 -11.85,2.19 -23.15,-3.77 -8.34,2.75 -22.23,7.54 -12.18,4.2 2.42,-4.24 -15.66,2.56 -12.33,4.63 -9.89,-5.67 -33.97,1.61 -0.48,0.14 -1.18,0.43 -1.63,0.57 -0.41,0.12 -1.12,0.38 -1.51,0.49l-17.26 3.82c-10.17,3.69 -2.22,3.48 -12.72,3.43 -13.64,-0.06 -12.52,-4.57 -27.12,-7.54 -4.96,7.92 -0.75,6.04 -7.72,11.16 -6.12,-1.84 -2.02,-1.49 -5.07,-6.51 -10.12,4.9 -18.19,4.07 -35.36,2.51l-3.64 10.43z"/>
  <path fill="#4581B1" d="M627.59 142.29c-5.68,8.89 -6.18,15.47 -17.08,20.59 -12.19,5.73 -21.64,0.71 -32.29,0.39 -31.79,-4.67 -21.96,1.01 -28.85,3.92 -1.34,-2.53 -0.99,-2.12 -1.21,-2.55l-1.32 -2.33c-14.84,9.48 3.04,5.69 -18.65,5.06 3.6,6.16 3.78,4.41 2.16,7.29 -10.26,18.29 -0.33,-10.85 -4.72,5.56 4.02,5.95 25.89,17.36 35.3,20.44 7.56,-5.28 38.61,-13.68 49.67,-17.21 7.88,-2.52 20.19,-5.95 25.65,-9.93 8.05,-5.87 -2.35,-2.6 6.55,-6.01 7.3,-2.8 0.67,0.97 11.53,-1.09 11.15,-2.12 11.6,-6.05 23.74,-8.98 24.85,-5.98 41.47,-13.98 67.41,-21.64 5.72,-1.68 8.07,-1.24 13.63,-2.36 -5.67,-9.06 -43.67,-32.91 -54.78,-33.36 -14.39,1.15 -18.88,4.52 -32.49,8.63 -0.22,0.07 -0.89,0.26 -1.11,0.33l-37.82 15.29c-0.3,10.51 0.5,11.29 -5.32,17.96z"/>
  <path fill="#FBE971" d="M737.05 460.11c5.32,-0.98 11.4,-1.34 17.07,-2.33 35.04,-6.14 5.27,-1.35 40.82,-0.7 0.1,1.78 -0.57,-0.42 -0.57,-0.49l47.66 -6.8c0.34,-0.07 6.14,-2.43 6.21,-2.47l2.39 -3.25c38.95,-0.08 9.73,-7.13 41.08,4.55 -4.65,-28.71 -18.53,-40.3 -36.98,-52.15 -10.04,-6.45 -48.28,-29.1 -57.74,-31.77l-41.33 72.46c-6.83,9.71 -13.37,14.11 -18.61,22.95z"/>
  <path fill="#417CAC" d="M560.93 200.66c3.62,5.24 13.05,9.18 20.34,13.48 9.33,5.5 16.57,10.04 26.31,13.58 -3.98,-10.28 -2.01,-4.38 24.49,-15.02l30.05 -12.97c7.7,-4 9.88,-1.02 17.83,-6.27 0.46,-0.3 1.21,-1.33 1.57,-1.57 6.93,-4.65 1.47,3.23 21.67,-4.43 17.59,-6.67 12.57,-3.75 15.38,-1.7 1.71,-2.7 2.71,-1.71 0.42,-6.33 5.96,-1.37 10.9,-3.92 16.98,-7.3 6.91,-3.84 43.31,-13.95 56.95,-13.55l-2.58 -3.42c-7.15,-8.15 -21.6,-19.95 -31.23,-21.72 -5.56,1.12 -7.91,0.68 -13.63,2.36 -25.94,7.66 -42.56,15.66 -67.41,21.64 -12.14,2.93 -12.59,6.86 -23.74,8.98 -10.86,2.06 -4.23,-1.71 -11.53,1.09 -8.9,3.41 1.5,0.14 -6.55,6.01 -5.46,3.98 -17.77,7.41 -25.65,9.93 -11.06,3.53 -42.11,11.93 -49.67,17.21z"/>
  <path fill="#4A87B8" d="M516.48 123.74l23.31 -6.62c7.24,-3.27 9.59,-1.84 13.37,-5.64l1.39 -3.46c0.04,-0.15 0.1,-0.84 -0.11,-1.17 13.5,14.96 10.47,-2.81 16.04,4.21 10.45,-4.33 22.96,-13.55 39.45,-6.55 13.9,5.9 18.5,17.51 17.66,37.78 5.82,-6.67 5.02,-7.45 5.32,-17.96l37.82 -15.29c0.22,-0.07 0.89,-0.26 1.11,-0.33 13.61,-4.11 18.1,-7.48 32.49,-8.63 -9.31,-9.54 -35.11,-19.04 -47.83,-24.34 -37.91,-15.79 -80.57,-28.23 -110.76,2.17 -11.48,11.56 -23.85,27.77 -29.26,45.83z"/>
  <path fill="#4B89BA" d="M251.19 217.6c20.59,-1.95 52.99,-18.74 74.61,-24.87 36.32,-10.31 8.07,11.16 34.36,-9.33l37.18 -15.51c10.76,-3.6 12.47,-0.14 14.3,-11.42 1.62,7.15 1.22,5.26 7.38,2.77 8.3,-3.34 3.44,4.81 5.58,-8.05 -17.64,-25.46 -80.6,-18.49 -106.05,-4.23 -15.05,8.44 -27.96,20.31 -37.16,31.14 -8.13,9.56 -26.08,27.21 -30.2,39.5z"/>
  <path fill="#FEFEFE" d="M570.48 111.06c-1.97,9.82 -8.23,12.93 -6.16,28.51 1.67,12.55 8.09,14.8 13.9,23.7 10.65,0.32 20.1,5.34 32.29,-0.39 10.9,-5.12 11.4,-11.7 17.08,-20.59 0.84,-20.27 -3.76,-31.88 -17.66,-37.78 -16.49,-7 -29,2.22 -39.45,6.55z"/>
  <path fill="#D2ECF0" d="M334.16 786.93c-7.88,7 8.56,1.82 -7.87,5.83 34.22,12.38 54.89,19.84 96.5,24 2.38,-3.59 1.57,1.27 1.14,-5.63 -2.1,-11.3 -12.92,-22.2 -16.57,-35.78l-73.2 11.58z"/>
  <path fill="#C9E5EA" d="M473.43 727.11c2.61,21.29 -17.38,30.13 -30.55,17.89 -13.36,-12.42 -3.95,-30.64 15.35,-31.58l3.04 14.16 12.16 -0.47zm-29.8 -17.67c-5.94,3.1 -9.74,3.25 -12.71,13.5 -7.05,24.3 16.34,42.3 37.4,31.85 27.8,-13.8 9.67,-63.28 -24.69,-45.35z"/>
 </g>
</svg>
