<svg version="1.1" xmlns="http://www.w3.org/2000/svg" viewBox="-2943.5328751746238 -1035.2640258789063 12791.340891188722 2639.360070800781"><desc>Created with Snap</desc><defs></defs><g><g transform="matrix(30.154,0,0,30.154,-10449.0157,-5060.0436)"><path fill-rule="evenodd" clip-rule="evenodd" fill="#195190" d="M336.606,210.816l-38.793-67.154l-38.72,67.081L336.606,210.816  L336.606,210.816z M309.554,177.205l-16.114,27.851h-6.563l19.394-33.392L309.554,177.205L309.554,177.205z M300.148,205.056  l12.685-22.095l12.835,22.095H300.148L300.148,205.056z M302.99,165.902l-22.678,39.153l-10.281-0.073l27.782-48.125L302.99,165.902  L302.99,165.902z" style=""></path><desc>Created with Snap</desc><defs></defs></g><g><g transform="matrix(1.024,0,0,-1.024,0,0)"><path d="M490 0L418 194L160 194L90 0L8 0L273 711L311 711L577 0L490 0ZM264 477L187 266L393 266L315 479L290 585L289 585L264 477ZM679 0L679 500L759 500L759 0L679 0ZM662 652Q662 675 677 691Q693 708 717 708Q741 708 758 691Q775 675 775 652Q775 629 758 614Q741 599 717 599Q693 599 677 614Q662 629 662 652ZM1183 500L1166 423Q1136 433 1109 433Q1066 433 1041 409Q1016 386 1010 350L1010 0L930 0L930 500L986 500L1001 439L1005 439Q1024 473 1050 491Q1077 510 1118 510Q1147 510 1183 500ZM1920 478L1920 -200L1840 -200L1840 50L1836 50Q1816 20 1785 4Q1755 -12 1705 -12Q1605 -12 1557 51Q1509 115 1509 248Q1509 377 1571 443Q1633 509 1752 509Q1805 509 1851 499Q1898 489 1920 478ZM1719 58Q1770 58 1799 84Q1828 110 1840 164L1840 420Q1803 439 1738 439Q1669 439 1630 392Q1592 346 1592 249Q1592 207 1599 171Q1606 136 1621 111Q1636 86 1660 72Q1684 58 1719 58ZM2066 500L2146 500L2146 215Q2146 176 2150 146Q2155 117 2166 97Q2177 78 2196 68Q2215 58 2244 58Q2271 58 2292 66Q2313 75 2329 90Q2346 105 2358 124Q2371 144 2379 166L2379 500L2459 500L2459 142Q2459 106 2461 67Q2464 29 2470 0L2415 0L2395 79L2390 79Q2367 40 2328 14Q2289 -12 2229 -12Q2189 -12 2158 -3Q2128 7 2107 31Q2087 55 2076 95Q2066 136 2066 198L2066 500ZM2630 403L2605 463Q2643 486 2693 497Q2744 508 2799 508Q2851 508 2882 494Q2914 480 2930 457Q2947 435 2952 408Q2958 381 2958 354Q2958 294 2955 237Q2952 180 2952 129Q2952 92 2955 59Q2958 26 2966 -2L2907 -2L2886 68L2881 68Q2872 54 2858 40Q2845 27 2826 16Q2807 6 2782 -1Q2757 -8 2725 -8Q2693 -8 2665 2Q2638 12 2618 30Q2598 49 2586 75Q2575 101 2575 134Q2575 178 2593 207Q2611 237 2643 254Q2676 272 2721 279Q2767 287 2822 287Q2836 287 2849 287Q2863 287 2877 285Q2880 315 2880 339Q2880 394 2858 416Q2836 438 2778 438Q2761 438 2741 435Q2722 433 2701 428Q2681 424 2662 417Q2644 411 2630 403ZM2747 62Q2775 62 2797 69Q2819 77 2835 88Q2851 100 2861 114Q2872 128 2877 141L2877 224Q2863 225 2848 225Q2834 226 2820 226Q2789 226 2759 222Q2730 219 2707 209Q2685 200 2671 183Q2658 167 2658 142Q2658 107 2683 84Q2708 62 2747 62ZM3198 700L3198 123Q3198 88 3210 73Q3222 58 3244 58Q3257 58 3272 60Q3287 62 3306 69L3315 6Q3299 -2 3270 -7Q3242 -12 3221 -12Q3176 -12 3147 13Q3118 39 3118 100L3118 700L3198 700ZM3418 0L3418 500L3498 500L3498 0L3418 0ZM3401 652Q3401 675 3416 691Q3432 708 3456 708Q3480 708 3497 691Q3514 675 3514 652Q3514 629 3497 614Q3480 599 3456 599Q3432 599 3416 614Q3401 629 3401 652ZM3603 430L3603 500L3681 500L3681 599L3761 622L3761 500L3897 500L3897 430L3761 430L3761 153Q3761 101 3774 79Q3787 58 3818 58Q3844 58 3862 63Q3880 69 3902 78L3920 17Q3893 4 3861 -4Q3829 -12 3792 -12Q3731 -12 3706 22Q3681 57 3681 138L3681 430L3603 430ZM4035 500L4155 176L4183 80L4188 80L4210 177L4307 500L4388 500L4240 51Q4223 2 4206 -44Q4190 -90 4170 -126Q4150 -162 4125 -184Q4100 -205 4067 -205Q4031 -205 4008 -195L4022 -126Q4035 -131 4047 -131Q4075 -131 4101 -102Q4127 -72 4144 0L3943 500L4035 500ZM5114 0L5034 0L5034 283Q5034 323 5030 352Q5027 382 5017 402Q5007 422 4988 432Q4970 442 4940 442Q4894 442 4863 414Q4833 386 4821 344L4821 0L4741 0L4741 500L4797 500L4812 439L4816 439Q4843 471 4878 491Q4914 512 4971 512Q5019 512 5049 493Q5080 475 5097 429Q5120 468 5160 490Q5201 512 5252 512Q5294 512 5323 502Q5352 493 5371 469Q5390 445 5398 404Q5407 363 5407 300L5407 0L5327 0L5327 301Q5327 337 5323 363Q5320 390 5309 407Q5299 425 5280 433Q5262 442 5232 442Q5182 442 5154 414Q5126 386 5114 334L5114 0ZM5525 250Q5525 377 5581 444Q5638 512 5744 512Q5800 512 5841 493Q5883 475 5910 440Q5937 406 5950 357Q5963 309 5963 250Q5963 123 5906 55Q5850 -12 5744 -12Q5688 -12 5646 6Q5605 25 5578 59Q5551 94 5538 142Q5525 191 5525 250ZM5608 250Q5608 212 5615 177Q5623 142 5639 116Q5655 90 5681 74Q5707 58 5744 58Q5880 57 5880 250Q5880 289 5872 324Q5865 359 5849 385Q5833 411 5807 426Q5781 442 5744 442Q5608 443 5608 250ZM6490 0L6410 0L6410 285Q6410 363 6387 402Q6365 442 6305 442Q6252 442 6217 413Q6183 385 6169 342L6169 0L6089 0L6089 500L6145 500L6160 439L6164 439Q6188 471 6228 491Q6269 512 6325 512Q6366 512 6397 502Q6428 493 6448 469Q6469 445 6479 404Q6490 364 6490 302L6490 0ZM6653 0L6653 500L6733 500L6733 0L6653 0ZM6636 652Q6636 675 6651 691Q6667 708 6691 708Q6715 708 6732 691Q6749 675 6749 652Q6749 629 6732 614Q6715 599 6691 599Q6667 599 6651 614Q6636 629 6636 652ZM6838 430L6838 500L6916 500L6916 599L6996 622L6996 500L7132 500L7132 430L6996 430L6996 153Q6996 101 7009 79Q7022 58 7053 58Q7079 58 7097 63Q7115 69 7137 78L7155 17Q7128 4 7096 -4Q7064 -12 7027 -12Q6966 -12 6941 22Q6916 57 6916 138L6916 430L6838 430ZM7215 250Q7215 377 7271 444Q7328 512 7434 512Q7490 512 7531 493Q7573 475 7600 440Q7627 406 7640 357Q7653 309 7653 250Q7653 123 7596 55Q7540 -12 7434 -12Q7378 -12 7336 6Q7295 25 7268 59Q7241 94 7228 142Q7215 191 7215 250ZM7298 250Q7298 212 7305 177Q7313 142 7329 116Q7345 90 7371 74Q7397 58 7434 58Q7570 57 7570 250Q7570 289 7562 324Q7555 359 7539 385Q7523 411 7497 426Q7471 442 7434 442Q7298 443 7298 250ZM8032 500L8015 423Q7985 433 7958 433Q7915 433 7890 409Q7865 386 7859 350L7859 0L7779 0L7779 500L7835 500L7850 439L7854 439Q7873 473 7899 491Q7926 510 7967 510Q7996 510 8032 500ZM8136 0L8136 500L8216 500L8216 0L8136 0ZM8119 652Q8119 675 8134 691Q8150 708 8174 708Q8198 708 8215 691Q8232 675 8232 652Q8232 629 8215 614Q8198 599 8174 599Q8150 599 8134 614Q8119 629 8119 652ZM8788 0L8708 0L8708 285Q8708 363 8685 402Q8663 442 8603 442Q8550 442 8515 413Q8481 385 8467 342L8467 0L8387 0L8387 500L8443 500L8458 439L8462 439Q8486 471 8526 491Q8567 512 8623 512Q8664 512 8695 502Q8726 493 8746 469Q8767 445 8777 404Q8788 364 8788 302L8788 0ZM9317 479L9317 -23Q9317 -120 9265 -166Q9214 -212 9113 -212Q9053 -212 9016 -205Q8980 -197 8954 -185L8975 -117Q8998 -126 9026 -134Q9054 -142 9099 -142Q9141 -142 9167 -135Q9194 -127 9210 -110Q9226 -92 9232 -65Q9238 -37 9238 1L9238 49L9234 49Q9214 20 9183 4Q9152 -11 9102 -11Q9001 -11 8953 52Q8906 115 8906 248Q8906 376 8967 442Q9028 509 9147 509Q9204 509 9244 500Q9285 491 9317 479ZM9116 59Q9167 59 9196 84Q9225 110 9237 164L9237 420Q9197 439 9135 439Q9067 439 9028 393Q8989 347 8989 249Q8989 207 8996 172Q9003 137 9018 112Q9033 87 9057 73Q9081 59 9116 59Z" fill="#195190" style=""></path></g></g><g transform="matrix(0.75,0,0,0.75,-43.904,1081.088)"><g transform="matrix(1.024,0,0,-1.024,0,0)"><path d="M145 508Q145 469 164 440Q183 411 210 391Q237 372 286 342Q338 311 367 290Q396 269 416 236Q437 204 437 159Q437 111 413 72Q389 33 342 10Q296 -12 231 -12Q154 -12 90 23Q85 26 83 30Q82 34 81 42L68 178Q67 182 72 183Q78 184 79 180Q95 108 138 56Q182 4 254 4Q304 4 338 31Q373 59 373 119Q373 164 353 197Q333 230 304 251Q276 273 227 302Q179 331 151 352Q124 373 105 405Q86 437 86 480Q86 530 112 565Q139 601 181 618Q224 636 272 636Q331 636 389 612Q404 607 404 595L411 480Q411 476 406 476Q401 476 400 480Q392 532 357 576Q322 621 256 621Q200 621 172 588Q145 556 145 508ZM722 -13Q664 -13 619 15Q575 44 551 92Q527 141 527 198Q527 263 558 308Q590 354 639 376Q689 399 740 399Q799 399 843 370Q887 341 910 293Q934 246 934 193Q934 131 905 84Q876 38 827 12Q779 -13 722 -13ZM751 6Q806 6 836 45Q866 84 866 165Q866 227 845 276Q825 325 789 352Q753 380 707 380Q653 380 623 341Q594 302 594 229Q594 168 614 117Q634 66 670 36Q706 6 751 6ZM1201 -12Q1136 -12 1092 16Q1048 45 1027 90Q1006 135 1006 185Q1006 249 1038 296Q1070 344 1120 369Q1171 395 1224 395Q1268 395 1304 377Q1341 360 1341 334Q1341 321 1331 311Q1322 302 1306 302Q1279 302 1262 335Q1249 355 1234 365Q1219 375 1191 375Q1135 375 1103 331Q1072 288 1072 215Q1072 131 1114 77Q1156 23 1240 23Q1301 23 1342 56L1343 56Q1346 56 1348 53Q1351 50 1349 48Q1314 17 1278 2Q1243 -12 1201 -12ZM1434 0Q1432 0 1432 6Q1432 12 1434 12Q1461 12 1474 17Q1488 23 1493 37Q1498 52 1498 81L1498 268Q1498 304 1490 320Q1483 336 1465 336Q1447 336 1420 322L1419 322Q1415 322 1413 327Q1411 332 1414 334L1544 394L1548 395Q1550 395 1553 392Q1556 390 1556 387Q1556 380 1555 347Q1554 314 1554 269L1554 81Q1554 51 1559 37Q1564 23 1577 17Q1590 12 1617 12Q1620 12 1620 6Q1620 0 1617 0Q1594 0 1580 1L1526 2L1472 1Q1458 0 1434 0ZM1518 512Q1497 512 1485 523Q1474 534 1474 554Q1474 574 1485 585Q1497 596 1518 596Q1538 596 1549 585Q1560 574 1560 554Q1560 534 1549 523Q1538 512 1518 512ZM2067 54L2069 54Q2073 54 2074 49Q2075 45 2071 43L1968 -6Q1964 -8 1960 -8Q1947 -8 1937 9Q1927 26 1924 56L1862 23Q1831 7 1811 0Q1791 -7 1772 -7Q1741 -7 1724 9Q1708 26 1708 51Q1708 78 1728 94Q1749 111 1802 129L1923 172L1923 255Q1923 321 1906 347Q1889 374 1859 374Q1825 374 1806 350Q1787 326 1783 292Q1779 254 1746 254Q1730 254 1721 262Q1712 270 1712 284Q1712 307 1742 333Q1772 359 1814 377Q1857 395 1891 395Q1931 395 1955 367Q1979 340 1979 285L1979 108Q1979 73 1988 57Q1997 41 2018 41Q2037 41 2067 54ZM1862 39L1923 70L1923 76L1923 160L1820 121Q1797 112 1787 101Q1778 90 1778 73Q1778 52 1790 40Q1802 29 1821 29Q1840 29 1862 39ZM2113 0Q2110 0 2110 6Q2110 12 2113 12Q2140 12 2153 17Q2166 23 2171 37Q2176 52 2176 81L2176 598Q2176 634 2169 650Q2162 666 2144 666Q2129 666 2098 652L2096 652Q2093 652 2091 657Q2090 662 2093 663L2221 724Q2223 725 2226 725Q2228 725 2231 722Q2235 720 2235 717L2235 81Q2235 52 2239 38Q2244 24 2257 18Q2270 12 2297 12Q2300 12 2300 6Q2300 0 2297 0Q2275 0 2261 1L2205 2L2151 1Q2137 0 2113 0ZM3307 12Q3310 12 3310 6Q3310 0 3307 0Q3284 0 3270 1L3216 2L3162 1Q3148 0 3125 0Q3122 0 3122 6Q3122 12 3125 12Q3152 12 3165 17Q3178 23 3183 37Q3188 52 3188 81L3188 240Q3188 299 3167 327Q3146 356 3102 356Q3072 356 3041 339Q3011 323 2985 293Q2986 288 2986 277L2986 81Q2986 51 2991 37Q2996 23 3009 17Q3022 12 3049 12Q3052 12 3052 6Q3052 0 3049 0Q3026 0 3012 1L2958 2L2903 1Q2890 0 2867 0Q2864 0 2864 6Q2864 12 2867 12Q2894 12 2907 17Q2920 23 2924 37Q2929 51 2929 81L2929 240Q2929 299 2908 327Q2887 356 2844 356Q2814 356 2784 340Q2754 324 2729 295L2729 81Q2729 51 2733 37Q2738 23 2751 17Q2764 12 2791 12Q2794 12 2794 6Q2794 0 2791 0Q2768 0 2755 1L2701 2L2646 1Q2633 0 2610 0Q2607 0 2607 6Q2607 12 2610 12Q2637 12 2650 17Q2663 23 2667 37Q2672 51 2672 81L2672 279Q2672 313 2664 328Q2656 343 2637 343Q2621 343 2583 328L2581 328Q2577 328 2575 332Q2574 337 2578 339L2694 394Q2696 395 2700 395Q2709 395 2719 372Q2729 349 2729 313L2729 312Q2765 356 2801 376Q2837 396 2876 396Q2921 396 2949 374Q2977 352 2984 308Q3021 353 3058 374Q3095 396 3135 396Q3188 396 3216 365Q3245 335 3245 275L3245 81Q3245 51 3249 37Q3254 23 3267 17Q3280 12 3307 12ZM3691 56L3692 56Q3695 56 3697 52Q3700 49 3698 46Q3630 -12 3552 -12Q3493 -12 3450 15Q3407 42 3385 85Q3364 129 3364 180Q3364 240 3392 289Q3421 338 3470 366Q3519 395 3579 395Q3633 395 3663 368Q3693 342 3693 296Q3693 284 3690 278Q3688 273 3681 273L3435 271Q3430 244 3430 219Q3430 132 3472 77Q3514 23 3588 23Q3645 23 3691 56ZM3545 375Q3504 375 3476 351Q3449 328 3438 285L3624 289Q3624 330 3602 352Q3581 375 3545 375ZM4240 56L4242 57Q4246 57 4247 52Q4249 47 4246 45L4136 -7Q4130 -9 4128 -9Q4115 -9 4106 13Q4097 35 4096 74Q4059 35 4018 11Q3978 -13 3928 -13Q3886 -13 3850 11Q3815 35 3793 78Q3772 122 3772 178Q3772 249 3807 299Q3842 349 3895 374Q3948 399 4000 399Q4053 399 4096 373L4096 597Q4096 633 4088 649Q4081 665 4063 665Q4050 665 4017 651L4015 651Q4011 651 4009 655Q4008 660 4011 662L4138 724Q4140 725 4143 725Q4145 725 4148 722Q4152 720 4152 717L4152 110Q4152 74 4160 58Q4169 42 4188 42Q4217 42 4240 56ZM3967 23Q4003 23 4034 40Q4065 58 4096 90L4096 310Q4072 343 4043 361Q4014 379 3973 379Q3910 379 3873 334Q3837 290 3837 208Q3837 153 3854 111Q3871 69 3900 46Q3930 23 3967 23ZM4301 0Q4299 0 4299 6Q4299 12 4301 12Q4328 12 4341 17Q4355 23 4360 37Q4365 52 4365 81L4365 268Q4365 304 4357 320Q4350 336 4332 336Q4314 336 4287 322L4286 322Q4282 322 4280 327Q4278 332 4281 334L4411 394L4415 395Q4417 395 4420 392Q4423 390 4423 387Q4423 380 4422 347Q4421 314 4421 269L4421 81Q4421 51 4426 37Q4431 23 4444 17Q4457 12 4484 12Q4487 12 4487 6Q4487 0 4484 0Q4461 0 4447 1L4393 2L4339 1Q4325 0 4301 0ZM4385 512Q4364 512 4352 523Q4341 534 4341 554Q4341 574 4352 585Q4364 596 4385 596Q4405 596 4416 585Q4427 574 4427 554Q4427 534 4416 523Q4405 512 4385 512ZM4934 54L4936 54Q4940 54 4941 49Q4942 45 4938 43L4835 -6Q4831 -8 4827 -8Q4814 -8 4804 9Q4794 26 4791 56L4729 23Q4698 7 4678 0Q4658 -7 4639 -7Q4608 -7 4591 9Q4575 26 4575 51Q4575 78 4595 94Q4616 111 4669 129L4790 172L4790 255Q4790 321 4773 347Q4756 374 4726 374Q4692 374 4673 350Q4654 326 4650 292Q4646 254 4613 254Q4597 254 4588 262Q4579 270 4579 284Q4579 307 4609 333Q4639 359 4681 377Q4724 395 4758 395Q4798 395 4822 367Q4846 340 4846 285L4846 108Q4846 73 4855 57Q4864 41 4885 41Q4904 41 4934 54ZM4729 39L4790 70L4790 76L4790 160L4687 121Q4664 112 4654 101Q4645 90 4645 73Q4645 52 4657 40Q4669 29 4688 29Q4707 29 4729 39ZM5587 54L5589 54Q5593 54 5594 49Q5595 45 5591 43L5488 -6Q5484 -8 5480 -8Q5467 -8 5457 9Q5447 26 5444 56L5382 23Q5351 7 5331 0Q5311 -7 5292 -7Q5261 -7 5244 9Q5228 26 5228 51Q5228 78 5248 94Q5269 111 5322 129L5443 172L5443 255Q5443 321 5426 347Q5409 374 5379 374Q5345 374 5326 350Q5307 326 5303 292Q5299 254 5266 254Q5250 254 5241 262Q5232 270 5232 284Q5232 307 5262 333Q5292 359 5334 377Q5377 395 5411 395Q5451 395 5475 367Q5499 340 5499 285L5499 108Q5499 73 5508 57Q5517 41 5538 41Q5557 41 5587 54ZM5382 39L5443 70L5443 76L5443 160L5340 121Q5317 112 5307 101Q5298 90 5298 73Q5298 52 5310 40Q5322 29 5341 29Q5360 29 5382 39ZM6088 12Q6091 12 6091 6Q6091 0 6088 0Q6065 0 6052 1L5998 2L5943 1Q5930 0 5907 0Q5904 0 5904 6Q5904 12 5907 12Q5934 12 5947 17Q5960 23 5964 37Q5969 51 5969 81L5969 243Q5969 302 5946 330Q5924 358 5877 358Q5846 358 5814 341Q5783 325 5757 296L5757 81Q5757 51 5761 37Q5766 23 5779 17Q5792 12 5819 12Q5822 12 5822 6Q5822 0 5819 0Q5796 0 5783 1L5729 2L5674 1Q5661 0 5638 0Q5635 0 5635 6Q5635 12 5638 12Q5665 12 5678 17Q5691 23 5695 37Q5700 51 5700 81L5700 279Q5700 313 5692 328Q5684 343 5665 343Q5649 343 5611 328L5609 328Q5605 328 5603 332Q5602 337 5606 339L5722 394Q5724 395 5728 395Q5737 395 5747 372Q5757 349 5757 313Q5795 357 5832 378Q5870 399 5910 399Q5966 399 5996 368Q6026 337 6026 277L6026 81Q6026 51 6030 37Q6035 23 6048 17Q6061 12 6088 12ZM6523 54L6525 54Q6529 54 6530 49Q6531 45 6527 43L6424 -6Q6420 -8 6416 -8Q6403 -8 6393 9Q6383 26 6380 56L6318 23Q6287 7 6267 0Q6247 -7 6228 -7Q6197 -7 6180 9Q6164 26 6164 51Q6164 78 6184 94Q6205 111 6258 129L6379 172L6379 255Q6379 321 6362 347Q6345 374 6315 374Q6281 374 6262 350Q6243 326 6239 292Q6235 254 6202 254Q6186 254 6177 262Q6168 270 6168 284Q6168 307 6198 333Q6228 359 6270 377Q6313 395 6347 395Q6387 395 6411 367Q6435 340 6435 285L6435 108Q6435 73 6444 57Q6453 41 6474 41Q6493 41 6523 54ZM6318 39L6379 70L6379 76L6379 160L6276 121Q6253 112 6243 101Q6234 90 6234 73Q6234 52 6246 40Q6258 29 6277 29Q6296 29 6318 39ZM6569 0Q6566 0 6566 6Q6566 12 6569 12Q6596 12 6609 17Q6622 23 6627 37Q6632 52 6632 81L6632 598Q6632 634 6625 650Q6618 666 6600 666Q6585 666 6554 652L6552 652Q6549 652 6547 657Q6546 662 6549 663L6677 724Q6679 725 6682 725Q6684 725 6687 722Q6691 720 6691 717L6691 81Q6691 52 6695 38Q6700 24 6713 18Q6726 12 6753 12Q6756 12 6756 6Q6756 0 6753 0Q6731 0 6717 1L6661 2L6607 1Q6593 0 6569 0ZM7218 386Q7221 386 7221 380Q7221 374 7218 374Q7193 374 7175 356Q7157 338 7141 297L7019 -28Q6982 -125 6949 -180Q6917 -234 6882 -258Q6848 -281 6803 -281Q6781 -281 6766 -271Q6752 -261 6752 -242Q6752 -228 6761 -220Q6770 -212 6783 -212Q6796 -212 6805 -215Q6814 -218 6824 -225Q6826 -226 6835 -231Q6845 -236 6859 -236Q6883 -236 6904 -215Q6926 -194 6950 -145Q6975 -95 7008 -8L6856 303Q6833 347 6821 360Q6809 374 6790 374Q6788 374 6788 380Q6788 386 6790 386L6824 385Q6836 384 6857 384L6921 385Q6935 386 6960 386Q6962 386 6962 380Q6962 374 6960 374Q6902 374 6902 351Q6902 345 6907 335L7039 64L7119 294Q7127 318 7127 332Q7127 355 7109 364Q7091 374 7050 374Q7048 374 7048 380Q7048 386 7050 386Q7077 386 7091 385L7151 384L7187 385Q7197 386 7218 386ZM7322 325Q7322 290 7345 269Q7368 249 7413 226Q7448 208 7467 195Q7487 182 7501 161Q7515 140 7515 110Q7515 59 7477 24Q7439 -11 7374 -11Q7321 -11 7278 19Q7272 23 7272 31L7270 109Q7270 112 7275 112Q7281 113 7282 110Q7301 60 7331 34Q7362 8 7402 8Q7433 8 7450 22Q7468 37 7468 66Q7468 94 7455 113Q7443 133 7425 144Q7407 156 7376 172Q7343 188 7323 201Q7304 214 7290 235Q7277 256 7277 287Q7277 341 7317 369Q7358 398 7413 398Q7453 398 7486 383Q7492 381 7493 378Q7495 376 7495 372Q7495 352 7494 341L7493 299Q7493 297 7487 297Q7481 297 7481 299Q7481 320 7465 338Q7449 357 7425 368Q7401 379 7377 379Q7351 379 7336 365Q7322 352 7322 325ZM7613 0Q7611 0 7611 6Q7611 12 7613 12Q7640 12 7653 17Q7667 23 7672 37Q7677 52 7677 81L7677 268Q7677 304 7669 320Q7662 336 7644 336Q7626 336 7599 322L7598 322Q7594 322 7592 327Q7590 332 7593 334L7723 394L7727 395Q7729 395 7732 392Q7735 390 7735 387Q7735 380 7734 347Q7733 314 7733 269L7733 81Q7733 51 7738 37Q7743 23 7756 17Q7769 12 7796 12Q7799 12 7799 6Q7799 0 7796 0Q7773 0 7759 1L7705 2L7651 1Q7637 0 7613 0ZM7697 512Q7676 512 7664 523Q7653 534 7653 554Q7653 574 7664 585Q7676 596 7697 596Q7717 596 7728 585Q7739 574 7739 554Q7739 534 7728 523Q7717 512 7697 512ZM7933 325Q7933 290 7956 269Q7979 249 8024 226Q8059 208 8078 195Q8098 182 8112 161Q8126 140 8126 110Q8126 59 8088 24Q8050 -11 7985 -11Q7932 -11 7889 19Q7883 23 7883 31L7881 109Q7881 112 7886 112Q7892 113 7893 110Q7912 60 7942 34Q7973 8 8013 8Q8044 8 8061 22Q8079 37 8079 66Q8079 94 8066 113Q8054 133 8036 144Q8018 156 7987 172Q7954 188 7934 201Q7915 214 7901 235Q7888 256 7888 287Q7888 341 7928 369Q7969 398 8024 398Q8064 398 8097 383Q8103 381 8104 378Q8106 376 8106 372Q8106 352 8105 341L8104 299Q8104 297 8098 297Q8092 297 8092 299Q8092 320 8076 338Q8060 357 8036 368Q8012 379 7988 379Q7962 379 7947 365Q7933 352 7933 325Z" fill="#195190" style=""></path></g></g></g></svg>